# xmcd
#
# Track frame offsets:
#	150
#	17257
#	36415
#	47275
#	62205
#	70965
#	87120
#	100132
#	124812
#	137955
#	153607
#	172325
#	190840
#	209622
#	228777
#	246480
#
# Disc length: 3558 seconds
#
# Revision: 1
# Processed by: cddbd v1.5.1PL0 Copyright (c) Steve Scherf et al.
# Submitted via: CDex 1.50Beta5
#
DISCID=e40de410
DTITLE=さまざまなアーティスト - MUSIC TIME CAPSULE(ROCK)
DYEAR=1900
DGENRE=Rock
TTITLE0=QUEEN/KEEP YOURSELF ALIVE
TTITLE1=CREAM/CROSSROADS
TTITLE2=YARDBIRDS/LITTEE GAMES
TTITLE3=JEFF BECK/SHAPES OF THINGS
TTITLE4=EDDIE CHOCRAN/C'MON EVERYBODY
TTITLE5=THE BEACH BOYS/GOOD VIBRATIONS
TTITLE6=SMALL FACES/SHAKE
TTITLE7=TEN YEARS AFTER/I WOKE UP THIS MORNING
TTITLE8=Dr.FEELGOOD/ANOTHER MAN
TTITLE9=THE STRANGLERS/NO MORE HEROES
TTITLE10=UFO/ONLY YOU CAN ROCK ME
TTITLE11=THE MICHAEL SCHENKER GROUP/ARMED AND READY
TTITLE12=BILLY IDOL/MONY MONY
TTITLE13=ROBERT PALMER/SIMPLY IRRESISTIBLE
TTITLE14=HUEY LEWIS and THE NEWS/POWER OF LOVE
TTITLE15=ELECTRIC LIGHT ORCHESTRA/ROLL OVER BEETHOVEN
EXTD=
EXTT0=
EXTT1=
EXTT2=
EXTT3=
EXTT4=
EXTT5=
EXTT6=
EXTT7=
EXTT8=
EXTT9=
EXTT10=
EXTT11=
EXTT12=
EXTT13=
EXTT14=
EXTT15=
PLAYORDER=
